HIERARCHY
ROOT Hips
{
    OFFSET 0.000000 0.000000 0.000000
    CHANNELS 6 Xposition Yposition Zposition Zrotation Xrotation Yrotation
    JOINT Spine
    {
        OFFSET -0.000000 7.236184 0.000000
        CHANNELS 3 Zrotation Xrotation Yrotation
        JOINT Spine1
        {
            OFFSET -0.000000 20.420147 0.000000
            CHANNELS 3 Zrotation Xrotation Yrotation
            JOINT Neck
            {
                OFFSET -0.000000 20.336288 1.848754
                CHANNELS 3 Zrotation Xrotation Yrotation
                JOINT Head
                {
                    OFFSET -0.000000 12.354461 -1.764923
                    CHANNELS 3 Zrotation Xrotation Yrotation
                    End Site
                    {
                        OFFSET -0.000000 22.061537 0.000000
                    }
                }
            }
            JOINT LeftShoulder
            {
                OFFSET 3.573296 18.396038 -0.314103
                CHANNELS 3 Zrotation Xrotation Yrotation
                JOINT LeftArm
                {
                    OFFSET 10.880760 0.000000 0.000000
                    CHANNELS 3 Zrotation Xrotation Yrotation
                    JOINT LeftForeArm
                    {
                        OFFSET 27.185530 0.000000 0.000000
                        CHANNELS 3 Zrotation Xrotation Yrotation
                        JOINT LeftHand
                        {
                            OFFSET 27.825975 0.000000 0.000000
                            CHANNELS 3 Zrotation Xrotation Yrotation
                            End Site
                            {
                                OFFSET 13.236923 0.000000 0.000000
                            }
                        }
                    }
                }
            }
            JOINT RightShoulder
            {
                OFFSET -3.474926 18.396038 -0.314103
                CHANNELS 3 Zrotation Xrotation Yrotation
                JOINT RightArm
                {
                    OFFSET -10.880760 0.000000 0.000000
                    CHANNELS 3 Zrotation Xrotation Yrotation
                    JOINT RightForeArm
                    {
                        OFFSET -27.185530 0.000000 0.000000
                        CHANNELS 3 Zrotation Xrotation Yrotation
                        JOINT RightHand
                        {
                            OFFSET -27.825975 0.000000 0.000000
                            CHANNELS 3 Zrotation Xrotation Yrotation
                            End Site
                            {
                                OFFSET -13.236923 0.000000 0.000000
                            }
                        }
                    }
                }
            }
        }
    }
    JOINT LeftUpLeg
    {
        OFFSET 8.824615 0.000000 0.000000
        CHANNELS 3 Zrotation Xrotation Yrotation
        JOINT LeftLeg
        {
            OFFSET -0.000000 -35.111282 0.000000
            CHANNELS 3 Zrotation Xrotation Yrotation
            JOINT LeftFoot
            {
                OFFSET -0.000000 -42.324711 0.000000
                CHANNELS 3 Zrotation Xrotation Yrotation
                JOINT LeftToeBase
                {
                    OFFSET -0.000000 -5.735999 13.236923
                    CHANNELS 3 Zrotation Xrotation Yrotation
                    End Site
                    {
                        OFFSET -0.000000 0.000000 3.529846
                    }
                }
            }
        }
    }
    JOINT RightUpLeg
    {
        OFFSET -8.824615 0.000000 0.000000
        CHANNELS 3 Zrotation Xrotation Yrotation
        JOINT RightLeg
        {
            OFFSET -0.000000 -35.111282 0.000000
            CHANNELS 3 Zrotation Xrotation Yrotation
            JOINT RightFoot
            {
                OFFSET -0.000000 -42.324711 0.000000
                CHANNELS 3 Zrotation Xrotation Yrotation
                JOINT RightToeBase
                {
                    OFFSET -0.000000 -5.735999 13.236923
                    CHANNELS 3 Zrotation Xrotation Yrotation
                    End Site
                    {
                        OFFSET -0.000000 0.000000 3.529846
                    }
                }
            }
        }
    }
}
MOTION
Frames:    13
Frame Time:    0.008333
-6.294753    83.118568    97.631798    13.458529    13.849727    -109.355736    -4.209812    -11.095818    -0.073753    -2.121081    7.034203    0.466011    3.743581    25.699425    -17.909298    27.053411    8.088486    -16.477720    7.919429    4.477674    -8.406301    -23.244425    29.807518    -75.696152    31.177517    -18.922403    -92.997520    51.477604    8.137970    -14.975284    4.236837    18.203358    -3.558090    42.174412    32.842262    30.916187    -24.244606    -4.039677    52.091888    -43.916134    3.721128    10.646492    14.538451    -24.663948    2.539488    3.504686    33.544418    -1.745971    0.827807    -15.363095    -8.471501    0.197182    -0.004351    -0.218571    -6.614195    -36.482231    -9.046059    21.679325    50.540428    -15.226852    14.641165    16.696558    -10.937426    -1.587063    -0.001953    1.716519    
-6.333767    82.984360    97.630760    13.384825    13.473111    -109.145393    -4.216444    -11.166578    0.035281    -2.327496    7.013789    0.590554    3.589579    25.713621    -18.008389    27.056112    7.971063    -16.568068    7.911461    4.467974    -8.337872    -23.518223    29.832834    -75.637444    30.933592    -18.544096    -93.035889    50.943577    8.383044    -14.893338    4.241929    18.405600    -3.486821    42.592396    33.258308    31.180677    -24.234558    -3.789353    51.062130    -44.912510    3.399803    11.085917    13.912743    -24.922373    2.133093    3.662161    33.866787    -1.843915    0.964877    -15.550075    -8.274929    0.073527    -0.036908    -0.081507    -5.758274    -35.564404    -8.142354    20.515955    49.272392    -14.356748    14.294811    16.195845    -11.183092    -1.561322    -0.439038    1.689695    
-6.370138    82.858429    97.629799    13.324685    13.115151    -108.915176    -4.218210    -11.235837    0.143808    -2.508250    6.995986    0.712354    3.436310    25.731926    -18.121943    27.074320    7.840456    -16.669283    7.914680    4.445317    -8.264397    -23.797329    29.849220    -75.531502    30.662724    -18.170906    -93.126801    50.393204    8.626805    -14.804250    4.225798    18.585634    -3.413184    42.957260    33.673077    31.423388    -24.220179    -3.545672    50.016754    -45.878304    3.071063    11.503464    13.301505    -25.184996    1.712873    3.818966    34.172276    -1.949376    1.102033    -15.722110    -8.080729    -0.043946    -0.067381    0.048719    -5.001699    -34.689018    -7.325846    19.450167    48.077877    -13.569151    13.931469    15.630610    -11.440365    -1.525687    -0.927062    1.652249    
-6.403493    82.741913    97.628891    13.278729    12.777337    -108.667549    -4.216563    -11.303671    0.250079    -2.662935    6.980428    0.830209    3.287559    25.753696    -18.249041    27.106163    7.697696    -16.780472    7.930632    4.408133    -8.186629    -24.079670    29.854256    -75.377945    30.368523    -17.806410    -93.270844    49.830818    8.867370    -14.710304    4.188807    18.741589    -3.338879    43.268890    34.079720    31.640459    -24.198549    -3.307226    48.972771    -46.802959    2.744350    11.893523    12.710928    -25.448225    1.285339    3.970806    34.455673    -2.060125    1.237077    -15.876894    -7.892346    -0.152662    -0.095746    0.169250    -4.340570    -33.864613    -6.600818    18.477785    46.965096    -12.856318    13.556842    15.011913    -11.705038    -1.479639    -1.449111    1.603553    
-6.433745    82.635155    97.627983    13.247016    12.459249    -108.403633    -4.212468    -11.370588    0.353657    -2.791926    6.967216    0.943302    3.144874    25.778212    -18.389467    27.150564    7.543456    -16.901442    7.960116    4.355471    -8.103919    -24.363840    29.845221    -75.177292    30.052786    -17.451963    -93.469032    49.257198    9.104705    -14.612755    4.130867    18.872475    -3.264478    43.531372    34.473797    31.828991    -24.167744    -3.070918    47.938072    -47.683567    2.426368    12.254769    12.143686    -25.710161    0.854412    4.114358    34.714100    -2.175098    1.369229    -16.013687    -7.711661    -0.251251    -0.122011    0.278564    -3.765935    -33.092758    -5.965010    17.588804    45.932434    -12.206780    13.175913    14.350204    -11.975506    -1.423210    -1.988990    1.543577    
-6.460484    82.539757    97.627052    13.229671    12.164677    -108.127609    -4.206806    -11.435881    0.452812    -2.893852    6.956322    1.050277    3.012455    25.803925    -18.541590    27.204771    7.380652    -17.031048    8.004110    4.286753    -8.017355    -24.646204    29.820135    -74.931755    29.721582    -17.113508    -93.720322    48.679775    9.336325    -14.513318    4.052162    18.977152    -3.192264    43.746895    34.843903    31.984642    -24.125311    -2.835178    46.931431    -48.508141    2.127245    12.583383    11.609625    -25.965485    0.429164    4.244517    34.941586    -2.291543    1.496184    -16.130245    -7.542584    -0.337104    -0.146116    0.373767    -3.276593    -32.383461    -5.423141    16.785463    44.989380    -11.619608    12.799824    13.667176    -12.245907    -1.357727    -2.523571    1.473681    
-6.483769    82.455879    97.626022    13.226117    11.893147    -107.840187    -4.200054    -11.499932    0.547281    -2.969337    6.948374    1.150753    2.891812    25.830032    -18.705444    27.267269    7.209726    -17.169247    8.063332    4.200325    -7.925508    -24.925957    29.777903    -74.641266    29.376413    -16.792850    -94.026520    48.098499    9.562956    -14.411560    3.952460    19.055540    -3.121449    43.922794    35.183773    32.104214    -24.069078    -2.595033    45.955044    -49.278542    1.851912    12.881596    11.110549    -26.212622    0.013154    4.359083    35.136242    -2.409044    1.617351    -16.226610    -7.386695    -0.409991    -0.168286    0.454598    -2.863793    -31.735123    -4.969822    16.058868    44.129730    -11.087256    12.436739    12.977934    -12.514048    -1.285293    -3.039218    1.396098    
-6.503253    82.385254    97.624916    13.235647    11.649505    -107.547073    -4.192688    -11.560952    0.635664    -3.017091    6.942643    1.243488    2.787725    25.855261    -18.878819    27.334637    7.034476    -17.314583    8.137936    4.097470    -7.830280    -25.198708    29.717674    -74.310791    29.024734    -16.497536    -94.384384    47.523262    9.781557    -14.308263    3.833291    19.106911    -3.054308    44.063148    35.481129    32.182716    -23.997681    -2.350112    45.026039    -49.983368    1.608549    13.147430    10.657603    -26.445704    -0.382242    4.454186    35.292923    -2.526314    1.730080    -16.301086    -7.247276    -0.468111    -0.188045    0.519061    -2.527612    -31.157700    -4.607616    15.414905    43.363289    -10.614840    12.103220    12.311139    -12.771048    -1.210096    -3.516407    1.315333    
-6.518944    82.328293    97.623741    13.257174    11.434734    -107.250542    -4.184741    -11.617845    0.717787    -3.037248    6.938299    1.328034    2.701895    25.879499    -19.060884    27.405012    6.856540    -17.466412    8.227177    3.978194    -7.730978    -25.461319    29.640018    -73.942223    28.670284    -16.232193    -94.793846    46.956955    9.991247    -14.201920    3.695086    19.131954    -2.990479    44.175148    35.728504    32.217297    -23.909365    -2.096889    44.145760    -50.623337    1.400180    13.383787    10.254433    -26.662380    -0.751378    4.528605    35.409782    -2.643666    1.833090    -16.353567    -7.125821    -0.511672    -0.204944    0.567380    -2.262654    -30.651737    -4.330879    14.850260    42.687572    -10.202478    11.812052    11.686956    -13.010411    -1.135923    -3.947222    1.235491    
-6.530747    82.285820    97.622627    13.289285    11.251329    -106.954857    -4.176157    -11.668446    0.793133    -3.029956    6.933571    1.403791    2.637035    25.902742    -19.249880    27.476217    6.678787    -17.623528    8.330023    3.844258    -7.628345    -25.709354    29.546192    -73.539993    28.318935    -16.004072    -95.252182    46.405296    10.189775    -14.091233    3.539970    19.131132    -2.930399    44.264473    35.917583    32.204819    -23.802856    -1.834144    43.319225    -51.194878    1.229827    13.592336    9.907069    -26.859142    -1.086360    4.581262    35.484833    -2.761568    1.924527    -16.383846    -7.023745    -0.540586    -0.218534    0.599457    -2.066895    -30.221651    -4.135626    14.366975    42.106701    -9.855142    11.578435    11.128284    -13.222939    -1.067278    -4.325022    1.161479    
-6.538667    82.258133    97.621727    13.330591    11.100213    -106.662407    -4.166833    -11.710687    0.861763    -2.995389    6.926288    1.470753    2.595038    25.925734    -19.445240    27.546757    6.502598    -17.785463    8.445182    3.697424    -7.522324    -25.939423    29.437237    -73.106453    27.974180    -15.818942    -95.759064    45.869823    10.375751    -13.973793    3.369215    19.105217    -2.873913    44.335892    36.043869    32.143669    -23.677181    -1.560489    42.542953    -51.698772    1.097200    13.775908    9.618119    -27.034235    -1.382573    4.612155    35.517250    -2.881253    2.003532    -16.392151    -6.941321    -0.555898    -0.228280    0.616447    -1.937987    -29.869028    -4.015414    13.964791    41.622097    -9.576042    11.414663    10.651587    -13.400828    -1.007539    -4.649366    1.096996    
-6.542665    82.245544    97.621277    13.379888    10.982322    -106.374855    -4.156215    -11.742286    0.923879    -2.933600    6.913971    1.528818    2.577806    25.949276    -19.646582    27.614855    6.328846    -17.952110    8.571833    3.539390    -7.412529    -26.148888    29.314007    -72.642113    27.638372    -15.683273    -96.316345    45.349567    10.548057    -13.847032    3.183597    19.054804    -2.820494    44.392921    36.102867    32.032681    -23.530266    -1.273732    41.810516    -52.136768    1.001403    13.937521    9.389534    -27.186314    -1.636186    4.621918    35.506138    -3.004998    2.069693    -16.378607    -6.878095    -0.558240    -0.233435    0.619049    -1.875554    -29.596111    -3.963531    13.645511    41.236839    -9.370023    11.331779    10.270318    -13.536958    -0.959760    -4.920750    1.045401    
-6.542623    82.248474    97.621613    13.435110    10.900519    -106.098633    -4.143553    -11.760436    0.978585    -2.846015    6.894581    1.577159    2.587282    25.973528    -19.850327    27.678217    6.161408    -18.120487    8.706625    3.374649    -7.300760    -26.332586    29.178989    -72.154434    27.318785    -15.605357    -96.917725    44.851986    10.702797    -13.710531    2.987288    18.980616    -2.770449    44.436104    36.091492    31.873363    -23.363504    -0.977976    41.125893    -52.502277    0.941984    14.076626    9.226460    -27.311695    -1.840572    4.611116    35.451305    -3.132249    2.121799    -16.343931    -6.834355    -0.549071    -0.233340    0.608881    -1.882085    -29.410574    -3.975120    13.416937    40.963154    -9.244455    11.340152    10.001255    -13.623021    -0.927593    -5.135596    1.010690    
